<svg xmlns="http://www.w3.org/2000/svg" xmlns:xlink="http://www.w3.org/1999/xlink" version="1.1" id="Шар_1" x="0px" y="0px" viewBox="0 0 1917.8 589" style="enable-background:new 0 0 1917.8 589;" xml:space="preserve"><style type="text/css">
	.st0{fill:none;stroke:#FF2939;stroke-width:3;stroke-miterlimit:10;}
</style><path class="st0" d="M1.7,374.9c71.6-11.6,136-32.7,172.7-69.4c118.9-118.9,69.5-231.3,51.1-253.3C154.2-33.4,3.2-12,3.2,146.2  S289.5,373.7,351,405.5c111.5,45.3,89.8,185.5-12.5,181.9s-112.4-94.9-110.6-168.9c1.8-71.9,5.4-122.4,91.6-189.6  c68.4-53.3,142.7-15,180.7,7.6s89.2,51.1,129.6-2.4c40.4-53.5,2.8-99.1-18.2-78.5c-21.7,21.2-19.5,85.7,149.1,85.7  c71.4,0,157.9-57.9,212.8-74.3c149.8-26.7,213.7,86.6,311.2,60.4c97.5-26.2,269.8-1.6,371.6,15.5c175,29.4,175,1.5,261.5,6.2"/></svg>