<?xml version="1.0" encoding="utf-8"?>
<!-- Generator: Adobe Illustrator 23.0.5, SVG Export Plug-In . SVG Version: 6.00 Build 0)  -->
<svg version="1.1" id="_x31_" xmlns="http://www.w3.org/2000/svg" xmlns:xlink="http://www.w3.org/1999/xlink" x="0px" y="0px"
	 viewBox="0 0 345.43 48.95" style="enable-background:new 0 0 345.43 48.95;" xml:space="preserve">
<style type="text/css">
	.st0{fill-rule:evenodd;clip-rule:evenodd;fill:#0F0F0F;}
	.st1{fill-rule:evenodd;clip-rule:evenodd;fill:#FF293B;}
</style>
<path class="st0" d="M25.14,3.99c2.58,2.52,4.09,6.07,4.09,10.27c0,1.64-0.22,3.17-0.65,4.58c-0.35,1.15-0.84,2.22-1.46,3.21h0.06
	l-13.9,20.73H5.98l9.69-14.3c-0.35,0.02-0.69,0.04-1.05,0.04c-4.28,0-7.93-1.47-10.52-3.99C1.51,22.02,0,18.46,0,14.26
	c0-4.2,1.51-7.76,4.09-10.27C6.68,1.47,10.34,0,14.62,0S22.55,1.47,25.14,3.99L25.14,3.99z M309.94,4.23
	c-2.88-1.88-6.12-3.14-9.54-3.52c-0.73-0.08-1.47-0.12-2.2-0.12c-5.54,0-11.54,1.64-13.91,7.16c-1.31,3.06-1.37,7.8,0.08,10.81
	c2.58,5.35,9.16,5.67,14.23,6.73c0.42,0.09,0.81,0.18,1.18,0.27c1.74,0.43,3.39,0.9,4.63,2.28c0.33,0.38,0.57,0.82,0.73,1.3
	c0.73,2.23,0.02,4.69-1.97,6.03c-0.84,0.56-1.8,0.92-2.78,1.16c-2.54,0.61-5.8,0.5-8.33-0.15c-0.47-0.12-0.93-0.26-1.38-0.43
	c-1.39-0.5-2.68-1.19-3.87-2.06c-0.51-0.37-0.98-0.77-1.46-1.19l-4.14,5.09c0.45,0.38,0.9,0.76,1.38,1.12
	c5.89,4.4,15.47,5.71,22.25,2.9c1.09-0.45,2.13-1.03,3.05-1.76c1.33-1.05,2.37-2.36,3.07-3.89c1.34-2.97,1.41-7.48,0.05-10.46
	c-1.54-3.38-4.55-4.83-7.95-5.82c-0.52-0.15-1.07-0.3-1.63-0.44c-2.96-0.72-9.21-1.25-10.92-4c-0.84-1.34-0.73-3.55-0.06-4.92
	c0.81-1.66,2.48-2.57,4.2-3.01c1.04-0.26,2.23-0.4,3.58-0.4c2.85,0,5.46,1,7.84,2.53c0.52,0.34,1.02,0.69,1.51,1.06l3.79-5.28
	C310.88,4.87,310.42,4.54,309.94,4.23L309.94,4.23z M268.99,42.8L253.64,1.18l-0.04-0.12h-5.32h-0.46L232.43,42.8l-0.09,0.24h7.58
	l3.06-8.92h15.46l3.07,8.92h7.58L268.99,42.8L268.99,42.8z M250.71,11.62l5.41,15.76H245.3L250.71,11.62L250.71,11.62z
	 M219.39,13.75c-0.71-6.71-4.72-11.14-11.34-12.49c-0.72-0.15-1.47-0.26-2.25-0.33c-0.78-0.07-1.59-0.11-2.41-0.11h-11.39h-4.04
	v41.98h15.41c0.83,0,1.64-0.04,2.42-0.11c6.59-0.62,11.72-4.01,13.26-10.69c0.16-0.68,0.27-1.39,0.35-2.13
	c0.08-0.74,0.12-1.5,0.12-2.29V16.04C219.51,15.25,219.47,14.49,219.39,13.75L219.39,13.75z M194.98,7.57h8.57
	c0.72,0,1.39,0.05,2.02,0.14c3.57,0.52,6.02,2.6,6.62,6.22c0.1,0.59,0.14,1.22,0.14,1.89v11.97c0,0.67-0.05,1.3-0.14,1.89
	c-0.46,2.84-2.13,4.91-4.86,5.82c-0.54,0.18-1.13,0.32-1.76,0.41c-0.63,0.09-1.3,0.14-2.02,0.14h-8.57V7.57L194.98,7.57z
	 M160.98,29.58L142.79,0.83h-6.2l0,41.95h6.97V14.47l18.13,28.31h6.25V0.83h-6.97V29.58L160.98,29.58z M121.66,42.79L106.18,0.81
	h-5.32h-0.46l-0.04,0.12L84.92,42.79h7.58l2.83-8.25l15.91-0.01l2.84,8.26H121.66L121.66,42.79z M103.29,11.36l5.95,16.96H97.38
	L103.29,11.36L103.29,11.36z M63.58,29.74c4.02-0.46,7.49-2.53,9.43-6.14c1.01-1.85,1.49-3.88,1.59-5.97
	c0.01-0.29,0.02-3.4,0.02-3.69c0-2.4-0.46-4.74-1.61-6.86c-1.94-3.61-5.38-5.71-9.43-6.17c-0.6-0.07-1.21-0.1-1.84-0.1H48.45h-3.12
	v41.98h7.03V29.84h9.38C62.37,29.84,62.99,29.8,63.58,29.74L63.58,29.74z M61.94,23.08h-9.57V7.57h9.57c0.28,0,0.55,0.02,0.81,0.05
	c2.46,0.3,4.04,2.12,4.53,4.49c0.24,1.15,0.24,5.32,0,6.47c-0.5,2.37-2.06,4.16-4.53,4.46C62.49,23.07,62.22,23.08,61.94,23.08
	L61.94,23.08z M8.62,8.41c-1.43,1.41-2.27,3.42-2.27,5.86c0,2.46,0.83,4.49,2.26,5.9c1.45,1.43,3.53,2.24,6,2.24s4.55-0.81,6-2.24
	c1.43-1.41,2.26-3.44,2.26-5.9c0-2.46-0.83-4.47-2.26-5.87c-1.45-1.42-3.54-2.22-6.01-2.22C12.15,6.17,10.07,6.98,8.62,8.41z"/>
<circle class="st1" cx="336.93" cy="40.45" r="8.5"/>
</svg>
