<svg width="346" height="49" viewBox="0 0 346 49" fill="none" xmlns="http://www.w3.org/2000/svg">
<g clip-path="url(#clip0)">
<path fill-rule="evenodd" clip-rule="evenodd" d="M25.14 3.99C27.72 6.51 29.23 10.06 29.23 14.26C29.23 15.9 29.01 17.43 28.58 18.84C28.23 19.99 27.74 21.06 27.12 22.05H27.18L13.28 42.78H5.98L15.67 28.48C15.32 28.5 14.98 28.52 14.62 28.52C10.34 28.52 6.69 27.05 4.1 24.53C1.51 22.02 0 18.46 0 14.26C0 10.06 1.51 6.5 4.09 3.99C6.68 1.47 10.34 0 14.62 0C18.9 0 22.55 1.47 25.14 3.99ZM309.94 4.23C307.06 2.35 303.82 1.09 300.4 0.71C299.67 0.63 298.93 0.59 298.2 0.59C292.66 0.59 286.66 2.23 284.29 7.75C282.98 10.81 282.92 15.55 284.37 18.56C286.95 23.91 293.53 24.23 298.6 25.29C299.02 25.38 299.41 25.47 299.78 25.56C301.52 25.99 303.17 26.46 304.41 27.84C304.74 28.22 304.98 28.66 305.14 29.14C305.87 31.37 305.16 33.83 303.17 35.17C302.33 35.73 301.37 36.09 300.39 36.33C297.85 36.94 294.59 36.83 292.06 36.18C291.59 36.06 291.13 35.92 290.68 35.75C289.29 35.25 288 34.56 286.81 33.69C286.3 33.32 285.83 32.92 285.35 32.5L281.21 37.59C281.66 37.97 282.11 38.35 282.59 38.71C288.48 43.11 298.06 44.42 304.84 41.61C305.93 41.16 306.97 40.58 307.89 39.85C309.22 38.8 310.26 37.49 310.96 35.96C312.3 32.99 312.37 28.48 311.01 25.5C309.47 22.12 306.46 20.67 303.06 19.68C302.54 19.53 301.99 19.38 301.43 19.24C298.47 18.52 292.22 17.99 290.51 15.24C289.67 13.9 289.78 11.69 290.45 10.32C291.26 8.66 292.93 7.75 294.65 7.31C295.69 7.05 296.88 6.91 298.23 6.91C301.08 6.91 303.69 7.91 306.07 9.44C306.59 9.78 307.09 10.13 307.58 10.5L311.37 5.22C310.88 4.87 310.42 4.54 309.94 4.23ZM268.99 42.8L253.64 1.18L253.6 1.06H248.28H247.82L232.43 42.8L232.34 43.04H239.92L242.98 34.12H258.44L261.51 43.04H269.09L268.99 42.8ZM250.71 11.62L256.12 27.38H245.3L250.71 11.62ZM219.39 13.75C218.68 7.04 214.67 2.61 208.05 1.26C207.33 1.11 206.58 1 205.8 0.93C205.02 0.86 204.21 0.82 203.39 0.82H192H187.96V42.8H203.37C204.2 42.8 205.01 42.76 205.79 42.69C212.38 42.07 217.51 38.68 219.05 32C219.21 31.32 219.32 30.61 219.4 29.87C219.48 29.13 219.52 28.37 219.52 27.58V16.04C219.51 15.25 219.47 14.49 219.39 13.75ZM194.98 7.57H203.55C204.27 7.57 204.94 7.62 205.57 7.71C209.14 8.23 211.59 10.31 212.19 13.93C212.29 14.52 212.33 15.15 212.33 15.82V27.79C212.33 28.46 212.28 29.09 212.19 29.68C211.73 32.52 210.06 34.59 207.33 35.5C206.79 35.68 206.2 35.82 205.57 35.91C204.94 36 204.27 36.05 203.55 36.05H194.98V7.57ZM160.98 29.58L142.79 0.83H136.59V42.78H143.56V14.47L161.69 42.78H167.94V0.83H160.97V29.58H160.98ZM121.66 42.79L106.18 0.81H100.86H100.4L100.36 0.93L84.92 42.79H92.5L95.33 34.54L111.24 34.53L114.08 42.79H121.66ZM103.29 11.36L109.24 28.32H97.38L103.29 11.36ZM63.58 29.74C67.6 29.28 71.07 27.21 73.01 23.6C74.02 21.75 74.5 19.72 74.6 17.63C74.61 17.34 74.62 14.23 74.62 13.94C74.62 11.54 74.16 9.2 73.01 7.08C71.07 3.47 67.63 1.37 63.58 0.91C62.98 0.84 62.37 0.81 61.74 0.81H48.45H45.33V42.79H52.36V29.84H61.74C62.37 29.84 62.99 29.8 63.58 29.74ZM61.94 23.08H52.37V7.57H61.94C62.22 7.57 62.49 7.59 62.75 7.62C65.21 7.92 66.79 9.74 67.28 12.11C67.52 13.26 67.52 17.43 67.28 18.58C66.78 20.95 65.22 22.74 62.75 23.04C62.49 23.07 62.22 23.08 61.94 23.08ZM8.62 8.41C7.19 9.82 6.35 11.83 6.35 14.27C6.35 16.73 7.18 18.76 8.61 20.17C10.06 21.6 12.14 22.41 14.61 22.41C17.08 22.41 19.16 21.6 20.61 20.17C22.04 18.76 22.87 16.73 22.87 14.27C22.87 11.81 22.04 9.8 20.61 8.4C19.16 6.98 17.07 6.18 14.6 6.18C12.15 6.17 10.07 6.98 8.62 8.41Z" fill="white"/>
<path d="M336.93 48.95C341.624 48.95 345.43 45.1444 345.43 40.45C345.43 35.7555 341.624 31.95 336.93 31.95C332.235 31.95 328.43 35.7555 328.43 40.45C328.43 45.1444 332.235 48.95 336.93 48.95Z" fill="#FF293B"/>
</g>
<defs>
<clipPath id="clip0">
<rect width="345.43" height="48.95" fill="white"/>
</clipPath>
</defs>
</svg>
